# xmcd
#
# Track frame offsets: 
#        150
#        19991
#        30935
#        41562
#        61518
#        71208
#        81232
#        98632
#        107476
#        130108
#        147731
#
# Disc length: 2364 seconds
#
# Revision: 0
# Processed by: cddbd v1.5PL3 Copyright (c) Steve Scherf et al.
# Submitted via: ExactAudioCopy v0.95a5
#
DISCID=8e093a0b
DTITLE=The Darren Johnson Band - The Legend of Hank Gibbled
DYEAR=2002
DGENRE=Blues
TTITLE0=Goodwoman
TTITLE1=Suzanna
TTITLE2=By My Side
TTITLE3=One Foot In the Grave
TTITLE4=When I'm Gone
TTITLE5=Waiting On Your Love
TTITLE6=My Baby's Blue
TTITLE7=Rollin On
TTITLE8=Same Damn Thing
TTITLE9=Never See You Again
TTITLE10=Cow Hunters Lament (A Song for Laurie)
EXTD=
EXTT0=
EXTT1=
EXTT2=
EXTT3=
EXTT4=
EXTT5=
EXTT6=
EXTT7=
EXTT8=
EXTT9=
EXTT10=
PLAYORDER=
